# xmcd
#
# Track frame offsets:
#	150
#	20304
#	36428
#	54360
#	73989
#	88777
#	102462
#	118635
#	135096
#	146476
#	157795
#	170164
#	182351
#	195848
#	210171
#	225426
#	240363
#	253422
#	268028
#	279828
#	296545
#	325001
#
# Disc length: 4795 seconds
#
# Revision: 1
# Processed by: cddbd v1.4PL0 Copyright (c) Steve Scherf et al.
# Submitted via: EasyCDDAExtractor 5.0.6
#
DISCID=2812b916
DTITLE=John Williamson - True Blue Two [Disc 2]
DYEAR=2003
DGENRE=Country
TTITLE0=Raining On The Rock (with Warren H. Williams - live)
TTITLE1=Forty Years Ago
TTITLE2=Dusty Road We Know
TTITLE3=Truckie's Wife
TTITLE4=Purple Roses
TTITLE5=Woman On The Land
TTITLE6=Salisbury Street
TTITLE7=It's A Way Of Life
TTITLE8=My Dad Snores
TTITLE9=Kitchy Kitchy Koo
TTITLE10=Big Brother, Little Brother
TTITLE11=Big Bad Bushranger
TTITLE12=A Mighty Big River
TTITLE13=This Ancient Land (with Jimmy Little)
TTITLE14=You Come Back To Tassie
TTITLE15=Sail The Nullarbor
TTITLE16=The Baggy Green (with Steve Waugh)
TTITLE17=Sir Don
TTITLE18=The Kiwi And The Emu
TTITLE19=A Number On My Back (The Wallaby Anthem)
TTITLE20=Waltzing Matilda (Rugby Version)
TTITLE21=Cdplayer
EXTD=
EXTT0=
EXTT1=
EXTT2=
EXTT3=
EXTT4=
EXTT5=
EXTT6=
EXTT7=
EXTT8=
EXTT9=
EXTT10=
EXTT11=
EXTT12=
EXTT13=
EXTT14=
EXTT15=
EXTT16=
EXTT17=
EXTT18=
EXTT19=
EXTT20=
EXTT21=
PLAYORDER=
